<svg width="24" height="24" viewBox="0 0 24 24" fill="none" xmlns="http://www.w3.org/2000/svg">
<path d="M5.35603 4.28613H18.6417C19.3533 4.28609 20.0379 4.55832 20.5551 5.04699C21.0723 5.53567 21.3829 6.20373 21.4232 6.91413L21.4275 7.07185V16.929C21.4275 17.6405 21.1553 18.3251 20.6666 18.8423C20.1779 19.3595 19.5099 19.6701 18.7995 19.7104L18.6417 19.7147H5.35603C4.64448 19.7148 3.95989 19.4425 3.44269 18.9538C2.92548 18.4652 2.61488 17.7971 2.5746 17.0867L2.57031 16.929V7.07185C2.57027 6.3603 2.8425 5.67571 3.33117 5.15851C3.81985 4.6413 4.48791 4.3307 5.19831 4.29042L5.35603 4.28613H18.6417H5.35603ZM20.1417 9.34756L12.2955 13.4276C12.2195 13.4671 12.1363 13.491 12.051 13.4979C11.9656 13.5048 11.8797 13.4946 11.7983 13.4678L11.7023 13.4276L3.85603 9.34756V16.929C3.85604 17.3054 3.9976 17.6681 4.25261 17.945C4.50762 18.222 4.85743 18.3929 5.2326 18.4238L5.35603 18.429H18.6417C19.0183 18.429 19.3811 18.2873 19.6581 18.0321C19.935 17.7769 20.1058 17.4269 20.1366 17.0516L20.1417 16.929V9.34756ZM18.6417 5.57185H5.35603C4.97958 5.57186 4.6169 5.71342 4.33998 5.96843C4.06306 6.22344 3.89215 6.57325 3.86117 6.94842L3.85603 7.07185V7.89813L11.9989 12.1324L20.1417 7.89813V7.07185C20.1417 6.69526 20 6.33247 19.7448 6.05553C19.4897 5.77859 19.1396 5.60776 18.7643 5.57699L18.6417 5.57185Z" fill="#4BB0FE"/>
</svg>
