<svg width="148" height="35" viewBox="0 0 148 35" fill="none" xmlns="http://www.w3.org/2000/svg">
<path fill-rule="evenodd" clip-rule="evenodd" d="M17.5789 18.721C20.5849 19.1899 20.9912 20.9871 21.2342 22.6598L21.2747 22.945L21.3023 23.1391L21.4487 24.1235C21.735 26.003 22.3325 29.9043 22.3325 31.9401C22.3325 32.4489 22.2882 32.8394 22.2072 33.054C22.0724 33.3847 21.6794 33.702 21.1367 33.9665C19.8237 34.2931 18.4513 34.4697 17.0376 34.4697C16.888 34.4697 16.7407 34.4623 16.5929 34.4579C16.0216 34.2939 15.5922 34.0202 15.3648 33.6461C14.6783 32.517 14.637 30.0013 14.6232 27.0615L14.6217 26.7206L14.6161 25.8394C14.5937 22.7273 14.5745 20.0439 15.6936 19.081C16.127 18.7107 16.7428 18.588 17.5789 18.721ZM11.0252 25.4967C11.6766 25.4597 12.0955 28.6972 12.1797 31.1522C12.2387 32.8614 12.0611 33.5644 11.7774 33.8169C11.4564 33.7086 11.1408 33.5914 10.8299 33.4641C10.6225 33.0832 10.464 32.4842 10.3633 31.6996C10.0558 29.2338 10.3229 25.5402 11.0252 25.4967ZM27.3561 30.3348C27.3154 30.5596 27.2581 30.7334 27.1875 30.8799C26.6306 31.3315 26.0452 31.7461 25.4326 32.1192C25.2375 32.1523 25.0642 32.1292 24.9795 31.9846C24.1676 30.5431 23.8628 26.0211 24.6485 25.6275C25.6729 25.1275 27.5079 29.553 27.3561 30.3348ZM16.7952 0.530273C25.9415 0.530273 33.3794 7.84911 33.5844 16.9562L33.5886 17.271V17.4165C33.5719 21.5303 32.0736 25.2939 29.6052 28.207C29.5157 28.1616 29.3524 28.013 29.0565 27.5658C28.7503 27.1162 26.1098 23.0101 26.1098 18.304C26.1098 17.3804 27.4273 15.9377 28.5932 14.6713C29.4647 13.7184 30.2902 12.8195 30.5942 12.113C30.9814 11.2015 30.7105 10.5649 30.2821 10.3492C29.8942 10.1574 29.312 10.2973 28.9033 11.0306C28.2328 12.2174 28.018 12.4392 27.0399 13.2333C26.0775 14.0269 24.5474 14.8259 24.5474 13.7917C24.5474 13.2333 25.3996 11.9686 25.8206 11.0821C26.2506 10.1858 25.7872 9.5369 24.8994 9.5369C23.156 9.5369 21.9988 11.7809 21.9988 12.5583C21.9988 13.3351 22.3717 13.4457 22.3717 14.3503C22.3717 15.2617 20.459 16.4438 18.6571 16.4438C16.9224 16.4438 15.9164 16.089 15.4996 15.0895L15.4464 14.9492L15.3259 14.589C14.8985 13.3268 14.5919 12.4114 14.0581 11.4547C13.7747 10.9488 13.3374 10.5981 12.9592 10.2895C12.465 9.90157 12.2085 9.54437 12.155 9.27798C12.1057 9.01369 12.0791 8.51562 12.9241 7.36747C13.7673 6.22588 13.8854 5.36346 13.4635 4.91846C13.3106 4.76015 13.0498 4.65872 12.715 4.65872C12.1228 4.65872 11.2999 4.97579 10.4518 5.84672C9.13349 7.21167 9.8819 8.50761 9.8819 9.07651C9.8819 9.64504 9.64038 9.96662 8.84925 10.7401C8.05233 11.517 7.77729 12.183 7.68615 14.86C7.65123 16.2393 7.41082 17.0333 7.19501 17.7373C7.00853 18.3544 6.83703 18.9345 6.82776 19.7727C6.813 20.7016 6.96601 21.3002 7.14458 21.9909C7.3199 22.6293 7.50611 23.3608 7.62541 24.5844C7.81517 26.4785 7.7492 28.0786 7.4042 29.7139L7.31212 30.1236L7.29061 30.2413C7.21995 30.5288 7.13597 30.8778 7.02245 31.0086C2.77186 27.958 0 22.9759 0 17.3442C0 8.05891 7.51913 0.530273 16.7952 0.530273Z" fill="#F14635"/>
<path d="M97.73 12.1656C99.3917 12.1656 100.684 12.7602 101.606 13.9493C102.528 15.1385 102.989 16.7731 102.989 18.8531V19.0466C102.989 21.0782 102.518 22.7007 101.575 23.9141C100.632 25.1274 99.3584 25.7341 97.7549 25.7341C96.5171 25.7341 95.4992 25.2946 94.7016 24.4159V31.0182H90.502V12.4075H94.4275L94.5522 13.6168C95.358 12.6494 96.4173 12.1656 97.73 12.1656ZM68.4447 12.1656C70.1644 12.1656 71.5228 12.5728 72.5198 13.387C73.5168 14.2013 74.0278 15.3179 74.0527 16.7368V22.5294C74.0693 23.7307 74.2604 24.6497 74.626 25.2866V25.4922H70.4261C70.2767 25.2261 70.1437 24.8352 70.0274 24.3192C69.2547 25.2624 68.1746 25.7341 66.7872 25.7341C65.516 25.7341 64.436 25.3611 63.547 24.6154C62.658 23.8697 62.2135 22.9325 62.2135 21.8038C62.2135 20.3849 62.7535 19.3126 63.8336 18.5871C64.9137 17.8615 66.484 17.4987 68.5443 17.4987H69.8404V16.8094C69.8404 15.6081 69.3046 15.0075 68.2328 15.0075C67.2358 15.0075 66.7374 15.4832 66.7374 16.4344H62.5375C62.5375 15.1687 63.092 14.1409 64.2013 13.3507C65.3104 12.5607 66.7249 12.1656 68.4447 12.1656ZM82.1154 12.1656C83.8932 12.1656 85.3222 12.5567 86.4022 13.3386C87.4824 14.1207 88.0224 15.1486 88.0224 16.4224H83.8103C83.8103 15.3744 83.241 14.8503 82.1029 14.8503C81.6625 14.8503 81.2928 14.9692 80.9937 15.207C80.6946 15.4449 80.545 15.7411 80.545 16.0959C80.545 16.4587 80.7279 16.7529 81.0934 16.9786C81.4589 17.2044 82.0426 17.3898 82.8443 17.5349C83.646 17.6801 84.3502 17.8534 84.9568 18.0549C86.984 18.7321 87.9974 19.9455 87.9974 21.6949C87.9974 22.8881 87.4513 23.8596 86.3587 24.6094C85.2661 25.3591 83.8517 25.7341 82.1154 25.7341C80.9605 25.7341 79.9302 25.5325 79.0247 25.1294C78.1191 24.7263 77.4129 24.178 76.906 23.4847C76.3992 22.7914 76.1459 22.0618 76.1459 21.2959H80.0715C80.0881 21.9005 80.2957 22.3419 80.6946 22.6201C81.0934 22.8982 81.6042 23.0373 82.2274 23.0373C82.8006 23.0373 83.2307 22.9244 83.5173 22.6987C83.804 22.4729 83.9471 22.1787 83.9471 21.8159C83.9471 21.4692 83.7604 21.1911 83.3864 20.9815C83.0125 20.7719 82.3021 20.5542 81.2554 20.3285C80.2086 20.1028 79.3445 19.8064 78.6632 19.4396C77.982 19.0728 77.4627 18.6274 77.1054 18.1033C76.7482 17.5793 76.5696 16.9786 76.5696 16.3014C76.5696 15.1002 77.0806 14.1107 78.1024 13.3326C79.1243 12.5546 80.462 12.1656 82.1154 12.1656ZM50.5618 6.89407V15.6484L56.5058 6.89407H61.9144L55.2725 15.6726L61.404 25.4922H56.2197L52.3564 18.9378L50.5618 20.8485V25.4922H46.1875V6.89407H50.5618ZM109.78 12.4075V25.4922H105.568V12.4075H109.78ZM146.816 12.4075V14.6084L140.81 22.348H146.954V25.4922H135.501V23.2187L141.483 15.5517H134.436L137.242 12.4075H146.816ZM115.412 21.2714C116.561 21.2714 117.491 22.1782 117.491 23.2968C117.491 24.4153 116.561 25.3221 115.412 25.3221C114.263 25.3221 113.332 24.4153 113.332 23.2968C113.332 22.1782 114.263 21.2714 115.412 21.2714ZM125.165 6.89355V16.6659L125.589 16.127L128.763 12.3425H133.811L129.076 17.6719L134.124 25.3005H129.301L126.352 20.4742L125.165 21.6119V25.3005H120.954V6.89355H125.165ZM69.8404 19.6754H68.6192C67.1569 19.6754 66.4258 20.3123 66.4258 21.5861C66.4258 21.957 66.5545 22.2573 66.8121 22.4871C67.0697 22.7168 67.3978 22.8317 67.7967 22.8317C68.32 22.8317 68.7541 22.7229 69.099 22.5053C69.4438 22.2875 69.6908 22.0417 69.8404 21.7675V19.6754ZM96.6957 15.3099C95.6987 15.3099 95.0339 15.6565 94.7016 16.3498V21.5015C95.0672 22.2271 95.7402 22.5899 96.7206 22.5899C98.0582 22.5899 98.7478 21.4693 98.7892 19.228V18.7926C98.7892 16.4708 98.0915 15.3099 96.6957 15.3099ZM107.731 6.89355C108.88 6.89355 109.811 7.84348 109.811 9.0153C109.811 10.1871 108.88 11.137 107.731 11.137C106.583 11.137 105.652 10.1871 105.652 9.0153C105.652 7.84348 106.583 6.89355 107.731 6.89355Z" fill="black"/>
</svg>
