<svg width="36" height="36" viewBox="0 0 36 36" fill="none" xmlns="http://www.w3.org/2000/svg">
<path d="M3.375 23.625L32.625 23.625C33.2463 23.625 33.75 23.1213 33.75 22.5V6.75C33.75 6.12868 33.2463 5.625 32.625 5.625L3.375 5.625C2.75368 5.625 2.25 6.12868 2.25 6.75L2.25 22.5C2.25 23.1213 2.75368 23.625 3.375 23.625Z" stroke="#4BB0FE" stroke-width="2" stroke-linejoin="round"/>
<path d="M4.5 27H31.5M6.75 30.375H29.25" stroke="#4BB0FE" stroke-width="2" stroke-linecap="round" stroke-linejoin="round"/>
<path d="M18 20.25C21.1066 20.25 23.625 17.7316 23.625 14.625C23.625 11.5184 21.1066 9 18 9C14.8934 9 12.375 11.5184 12.375 14.625C12.375 17.7316 14.8934 20.25 18 20.25Z" stroke="#4BB0FE" stroke-width="2" stroke-linecap="round" stroke-linejoin="round"/>
<path d="M33.75 11.25C32.2582 11.25 30.8274 10.6574 29.7725 9.60248C28.7176 8.54758 28.125 7.11684 28.125 5.625M2.25 11.25C2.98869 11.25 3.72014 11.1045 4.40259 10.8218C5.08505 10.5391 5.70515 10.1248 6.22748 9.60248C6.74981 9.08015 7.16414 8.46005 7.44682 7.77759C7.72951 7.09514 7.875 6.36369 7.875 5.625M33.75 18C32.2582 18 30.8274 18.5926 29.7725 19.6475C28.7176 20.7024 28.125 22.1332 28.125 23.625M2.25 18C2.98869 18 3.72014 18.1455 4.40259 18.4282C5.08505 18.7109 5.70515 19.1252 6.22748 19.6475C6.74981 20.1699 7.16414 20.7899 7.44682 21.4724C7.72951 22.1549 7.875 22.8863 7.875 23.625" stroke="#4BB0FE" stroke-width="2" stroke-linecap="round" stroke-linejoin="round"/>
</svg>
