<svg width="86" height="86" viewBox="0 0 86 86" fill="none" xmlns="http://www.w3.org/2000/svg">
<path d="M86 43C86 66.7482 66.7482 86 43 86C19.2518 86 0 66.7482 0 43C0 19.2518 19.2518 0 43 0C66.7482 0 86 19.2518 86 43Z" fill="#EB5757"/>
<path d="M50.4958 29.0606C52.2693 27.264 55.1635 27.2453 56.9601 29.0188C58.7567 30.7923 58.7754 33.6865 57.0019 35.4831L35.3621 57.4046C33.5886 59.2012 30.6945 59.22 28.8979 57.4465C27.1013 55.673 27.0826 52.7788 28.8561 50.9822L50.4958 29.0606Z" fill="white"/>
<path d="M28.8767 35.0398C27.0916 33.2547 27.0916 30.3605 28.8767 28.5754C30.6618 26.7903 33.556 26.7903 35.3411 28.5754L57.1222 50.3565C58.9073 52.1416 58.9073 55.0358 57.1222 56.8209C55.3371 58.606 52.4429 58.606 50.6578 56.8209L28.8767 35.0398Z" fill="white"/>
</svg>
