<svg width="86" height="86" viewBox="0 0 86 86" fill="none" xmlns="http://www.w3.org/2000/svg">
<path d="M0 43C0 19.2492 19.2492 0 43 0C66.7508 0 86 19.2492 86 43C86 66.7508 66.7508 86 43 86C19.2492 86 0 66.7508 0 43ZM62.4508 35.5758C64.2816 33.7449 64.2816 30.7551 62.4508 28.9242C60.6199 27.0934 57.6301 27.0934 55.7992 28.9242L37.625 47.0984L30.2008 39.6742C28.3699 37.8434 25.3801 37.8434 23.5492 39.6742C21.7184 41.5051 21.7184 44.4949 23.5492 46.3258L34.2992 57.0758C36.1301 58.9066 39.1199 58.9066 40.9508 57.0758L62.4508 35.5758Z" fill="#55B269"/>
</svg>
