<svg width="22" height="22" viewBox="0 0 22 22" fill="none" xmlns="http://www.w3.org/2000/svg">
<path d="M18.8439 5.12832L16.5559 2.84238C16.2766 2.56309 15.9027 2.40625 15.5074 2.40625C15.1121 2.40625 14.7383 2.56094 14.459 2.84238L11.9947 5.30234C11.7154 5.58164 11.5586 5.95762 11.5586 6.35293C11.5586 6.75039 11.7133 7.12207 11.9947 7.40352L13.9197 9.33066C13.4812 10.3524 12.8511 11.2808 12.0635 12.0656C11.275 12.8584 10.3533 13.4836 9.33066 13.9262L7.40566 11.999C7.12637 11.7197 6.75254 11.5629 6.35723 11.5629C6.16224 11.5622 5.96907 11.6004 5.78904 11.6753C5.60901 11.7502 5.44574 11.8602 5.30879 11.999L2.84238 14.459C2.56309 14.7383 2.40625 15.1143 2.40625 15.5096C2.40625 15.907 2.56094 16.2787 2.84238 16.5602L5.12832 18.8461C5.60527 19.323 6.2627 19.5959 6.9373 19.5959C7.07695 19.5959 7.2123 19.5852 7.3498 19.5615C10.1943 19.0932 13.0174 17.5785 15.2969 15.3012C17.5742 13.0195 19.0867 10.1965 19.5594 7.3498C19.6947 6.54199 19.424 5.71055 18.8439 5.12832ZM18.0361 7.09414C17.6172 9.62715 16.2551 12.1537 14.2033 14.2055C12.1516 16.2572 9.62715 17.6193 7.09414 18.0383C6.77617 18.092 6.44961 17.9846 6.21758 17.7547L3.97246 15.5096L6.35293 13.127L8.92676 15.7051L8.94609 15.7244L9.41016 15.5525C10.8172 15.0352 12.095 14.2181 13.1549 13.1578C14.2147 12.0976 15.0314 10.8196 15.5482 9.4123L15.7201 8.94824L13.1248 6.35508L15.5053 3.97246L17.7504 6.21758C17.9824 6.44961 18.0898 6.77617 18.0361 7.09414Z" fill="#1E1E1E"/>
</svg>
