<svg width="20" height="20" viewBox="0 0 20 20" fill="none" xmlns="http://www.w3.org/2000/svg">
<path d="M15.8074 12.3897C15.3979 11.9633 14.9041 11.7354 14.3806 11.7354C13.8614 11.7354 13.3633 11.9591 12.937 12.3854L11.6031 13.7151C11.4934 13.656 11.3836 13.6011 11.2781 13.5463C11.1261 13.4703 10.9826 13.3985 10.8602 13.3225C9.61075 12.529 8.47527 11.4948 7.38621 10.1567C6.85857 9.48975 6.504 8.92834 6.24651 8.35848C6.59264 8.0419 6.91345 7.71265 7.22581 7.39606C7.344 7.27787 7.4622 7.15546 7.58039 7.03727C8.46683 6.15083 8.46683 5.00268 7.58039 4.11624L6.42802 2.96387C6.29716 2.83302 6.16209 2.69794 6.03545 2.56286C5.78218 2.30115 5.51625 2.031 5.24188 1.77773C4.83243 1.3725 4.34277 1.15723 3.8278 1.15723C3.31282 1.15723 2.81472 1.3725 2.39261 1.77773C2.38839 1.78195 2.38839 1.78195 2.38417 1.78618L0.948981 3.23403C0.408675 3.77433 0.100533 4.43283 0.0329944 5.19685C-0.0683129 6.42942 0.294705 7.57757 0.5733 8.32893C1.25712 10.1736 2.27864 11.8831 3.80247 13.7151C5.65133 15.9228 7.87587 17.6661 10.417 18.8944C11.3879 19.3545 12.6837 19.8991 14.1316 19.9919C14.2202 19.9961 14.3131 20.0004 14.3975 20.0004C15.3726 20.0004 16.1915 19.65 16.8331 18.9535C16.8373 18.9451 16.8458 18.9409 16.85 18.9324C17.0695 18.6665 17.3228 18.4259 17.5887 18.1684C17.7702 17.9953 17.9559 17.8138 18.1375 17.6239C18.5553 17.1891 18.7748 16.6826 18.7748 16.1634C18.7748 15.6399 18.5511 15.1376 18.1248 14.7155L15.8074 12.3897ZM17.3186 16.8345C17.3143 16.8345 17.3143 16.8387 17.3186 16.8345C17.1539 17.0118 16.9851 17.1722 16.8036 17.3495C16.5292 17.6112 16.2506 17.8856 15.9889 18.1937C15.5626 18.6496 15.0602 18.8649 14.4017 18.8649C14.3384 18.8649 14.2709 18.8649 14.2076 18.8607C12.9539 18.7805 11.7889 18.2908 10.9151 17.8729C8.52592 16.7163 6.42802 15.0743 4.68469 12.9933C3.24528 11.2584 2.28286 9.65437 1.64547 7.93215C1.2529 6.88108 1.10938 6.06218 1.1727 5.28972C1.21491 4.79584 1.40486 4.38639 1.75522 4.03604L3.19463 2.59663C3.40146 2.40246 3.62096 2.29693 3.83624 2.29693C4.10217 2.29693 4.31745 2.45734 4.45252 2.59241C4.45675 2.59663 4.46097 2.60085 4.46519 2.60508C4.72268 2.84568 4.9675 3.09473 5.22499 3.36066C5.35585 3.49574 5.49092 3.63081 5.626 3.77011L6.77837 4.92248C7.22581 5.36992 7.22581 5.78359 6.77837 6.23103C6.65596 6.35344 6.53777 6.47586 6.41535 6.59405C6.06078 6.95707 5.72309 7.29476 5.35585 7.624C5.34741 7.63245 5.33896 7.63667 5.33474 7.64511C4.97172 8.00813 5.03926 8.3627 5.11524 8.60331C5.11946 8.61597 5.12369 8.62863 5.12791 8.6413C5.42761 9.36733 5.84972 10.0512 6.49133 10.8658L6.49555 10.8701C7.66059 12.3052 8.88894 13.4238 10.2439 14.2807C10.417 14.3905 10.5943 14.4791 10.7631 14.5635C10.9151 14.6395 11.0586 14.7113 11.181 14.7873C11.1979 14.7957 11.2148 14.8084 11.2317 14.8168C11.3752 14.8886 11.5103 14.9223 11.6496 14.9223C11.9999 14.9223 12.2194 14.7028 12.2912 14.6311L13.7348 13.1875C13.8783 13.0439 14.1063 12.8709 14.3722 12.8709C14.6339 12.8709 14.8492 13.0355 14.98 13.179C14.9843 13.1832 14.9843 13.1832 14.9885 13.1875L17.3143 15.5133C17.7491 15.9439 17.7491 16.3871 17.3186 16.8345Z" fill="#4BB0FE"/>
<path d="M10.8089 4.7574C11.9148 4.94313 12.9195 5.46655 13.7215 6.26857C14.5235 7.07059 15.0427 8.07522 15.2326 9.18115C15.2791 9.45975 15.5197 9.65392 15.7941 9.65392C15.8278 9.65392 15.8574 9.6497 15.8911 9.64548C16.2035 9.59483 16.4103 9.29935 16.3597 8.98698C16.1317 7.64888 15.4986 6.42897 14.5319 5.46233C13.5653 4.49569 12.3454 3.86252 11.0073 3.63458C10.6949 3.58393 10.4037 3.79076 10.3488 4.09891C10.2939 4.40705 10.4965 4.70675 10.8089 4.7574Z" fill="#4BB0FE"/>
<path d="M19.9795 8.82242C19.6039 6.61899 18.5655 4.61395 16.9699 3.01836C15.3743 1.42277 13.3692 0.384369 11.1658 0.00868772C10.8577 -0.0461871 10.5664 0.16487 10.5115 0.473013C10.4609 0.785377 10.6677 1.07664 10.9801 1.13151C12.9471 1.46498 14.7411 2.39785 16.1679 3.82037C17.5946 5.24712 18.5232 7.0411 18.8567 9.00815C18.9031 9.28675 19.1438 9.48092 19.4181 9.48092C19.4519 9.48092 19.4814 9.4767 19.5152 9.47248C19.8234 9.42604 20.0344 9.13056 19.9795 8.82242Z" fill="#4BB0FE"/>
</svg>
