<svg width="10" height="16" viewBox="0 0 10 16" fill="none" xmlns="http://www.w3.org/2000/svg">
<path fill-rule="evenodd" clip-rule="evenodd" d="M4.99922 3.92495C4.12937 3.92495 3.42422 4.6301 3.42422 5.49995C3.42422 6.3698 4.12937 7.07495 4.99922 7.07495C5.86907 7.07495 6.57422 6.3698 6.57422 5.49995C6.57422 4.6301 5.86907 3.92495 4.99922 3.92495ZM2.57422 5.49995C2.57422 4.16066 3.65993 3.07495 4.99922 3.07495C6.33851 3.07495 7.42422 4.16066 7.42422 5.49995C7.42422 6.83924 6.33851 7.92495 4.99922 7.92495C3.65993 7.92495 2.57422 6.83924 2.57422 5.49995Z" fill="#05192D"/>
<path fill-rule="evenodd" clip-rule="evenodd" d="M4.99968 1.42495C2.28709 1.42495 0.0173961 4.12906 1.39031 7.33254C2.13135 9.06161 3.12264 10.9211 3.93216 12.3533C4.33627 13.0683 4.69374 13.6744 4.95005 14.1016C4.96704 14.1299 4.98359 14.1575 4.99967 14.1842C5.01576 14.1575 5.03231 14.1299 5.0493 14.1016C5.30561 13.6744 5.66308 13.0683 6.06719 12.3533C6.87671 10.9211 7.868 9.06161 8.60904 7.33254C9.98195 4.12906 7.71226 1.42495 4.99968 1.42495ZM4.99968 15C4.63928 15.2252 4.63925 15.2252 4.63922 15.2251L4.63162 15.2129L4.60993 15.178C4.59095 15.1473 4.56303 15.1021 4.52706 15.0435C4.4551 14.9262 4.35086 14.7551 4.22118 14.5389C3.96186 14.1067 3.60058 13.4941 3.19219 12.7716C2.37671 11.3288 1.368 9.43829 0.609039 7.66737C-1.01805 3.87084 1.71226 0.574951 4.99968 0.574951C8.28709 0.574951 11.0174 3.87084 9.39031 7.66737C8.63135 9.43829 7.62264 11.3288 6.80716 12.7716C6.39877 13.4941 6.03749 14.1067 5.77817 14.5389C5.64849 14.7551 5.54425 14.9262 5.47229 15.0435C5.43632 15.1021 5.40841 15.1473 5.38942 15.178L5.36773 15.2129L5.36024 15.2249C5.36021 15.225 5.36007 15.2252 4.99968 15ZM4.99968 15L5.36024 15.2249C5.28258 15.3492 5.14621 15.425 4.99968 15.425C4.85314 15.425 4.71688 15.3494 4.63922 15.2251L4.99968 15Z" fill="#05192D"/>
</svg>
